<svg width="128" height="128" xmlns="http://www.w3.org/2000/svg" viewBox="0 0 1024 1024"><path d="M832 320H192c-17.7 0-32 14.3-32 32v448c0 17.7 14.3 32 32 32h640c17.7 0 32-14.3 32-32V352c0-17.7-14.3-32-32-32zM480 704H288c-17.7 0-32-14.3-32-32s14.3-32 32-32h192c17.7 0 32 14.3 32 32s-14.3 32-32 32zm256-128H288c-17.7 0-32-14.3-32-32s14.3-32 32-32h448c17.7 0 32 14.3 32 32s-14.3 32-32 32zM697.8 198.4L512 64 326.2 198.4c-11.6 8.4-27.9 5.8-36.3-5.8s-5.8-27.9 5.8-36.3l208-150.4c9.6-7 22.7-7 32.4 0l208 150.4c11.6 8.4 14.2 24.7 5.8 36.3-8.4 11.6-24.6 14.2-36.1 5.8z" fill="currentColor"/></svg>
