<svg xmlns="http://www.w3.org/2000/svg" viewBox="0 0 1024 1024">
  <path d="M928 160H96c-17.7 0-32 14.3-32 32v640c0 17.7 14.3 32 32 32h832c17.7 0 32-14.3 32-32V192c0-17.7-14.3-32-32-32z m-40 632H136V232h752v560z"/>
  <path d="M304 456c48.6 0 88-39.4 88-88s-39.4-88-88-88-88 39.4-88 88 39.4 88 88 88z m0-116c15.5 0 28 12.5 28 28s-12.5 28-28 28-28-12.5-28-28 12.5-28 28-28z"/>
  <path d="M887.3 643.8L715.9 468.6c-12.2-12.4-28.7-19.4-45.9-19.4s-33.7 6.9-45.9 19.4L504.7 590.5 423.9 509c-12.2-12.4-28.7-19.4-45.9-19.4s-33.7 6.9-45.9 19.4L168.3 677.1c-9.3 9.5-9.3 24.9 0.1 34.3 4.6 4.6 10.7 7 16.8 7s12.2-2.3 16.8-7l163.8-168 80.8 82.3c12.2 12.4 28.7 19.4 45.9 19.4s33.7-6.9 45.9-19.4l119.4-121.9 171.4 175.2c9.3 9.5 24.6 9.6 34 0.1 9.4-9.4 9.5-24.7 0.1-34z"/>
</svg>
