<svg width="128" height="128" xmlns="http://www.w3.org/2000/svg" viewBox="0 0 1024 1024"><path d="M912 192H328c-17.7 0-32 14.3-32 32v524.8L104 416V192c0-17.7 14.3-32 32-32h744c17.7 0 32 14.3 32 32zm0 128H400c-17.7 0-32 14.3-32 32v480c0 17.7 14.3 32 32 32h512c17.7 0 32-14.3 32-32V352c0-17.7-14.3-32-32-32zM592 768H496c-8.8 0-16-7.2-16-16V560c0-8.8 7.2-16 16-16h96c8.8 0 16 7.2 16 16v192c0 8.8-7.2 16-16 16zm224 0H720c-8.8 0-16-7.2-16-16V560c0-8.8 7.2-16 16-16h96c8.8 0 16 7.2 16 16v192c0 8.8-7.2 16-16 16z" fill="currentColor"/></svg>
