<svg width="128" height="128" xmlns="http://www.w3.org/2000/svg" viewBox="0 0 1024 1024"><path d="M512 352c-88.4 0-160 71.6-160 160s71.6 160 160 160 160-71.6 160-160-71.6-160-160-160zm0 256c-52.9 0-96-43.1-96-96s43.1-96 96-96 96 43.1 96 96-43.1 96-96 96zm418.8-168.6l-72.4-12.1c-5.6-23.6-14.4-46-26.4-66.8l42.4-58.8c7.2-10 6-23.8-2.8-32.6l-65.2-65.2c-8.8-8.8-22.6-10-32.6-2.8l-58.8 42.4c-20.8-12-43.2-20.8-66.8-26.4l-12.1-72.4C632.5 135.2 622.1 128 610 128h-92c-12.1 0-22.5 7.2-26.1 17.6l-12.1 72.4c-23.6 5.6-46 14.4-66.8 26.4l-58.8-42.4c-10-7.2-23.8-6-32.6 2.8l-65.2 65.2c-8.8 8.8-10 22.6-2.8 32.6l42.4 58.8c-12 20.8-20.8 43.2-26.4 66.8l-72.4 12.1C187.2 445.5 160 455.9 160 468v92c0 12.1 27.2 22.5 37.6 26.1l72.4 12.1c5.6 23.6 14.4 46 26.4 66.8l-42.4 58.8c-7.2 10-6 23.8 2.8 32.6l65.2 65.2c8.8 8.8 22.6 10 32.6 2.8l58.8-42.4c20.8 12 43.2 20.8 66.8 26.4l12.1 72.4c3.6 10.4 14 17.6 26.1 17.6h92c12.1 0 22.5-7.2 26.1-17.6l12.1-72.4c23.6-5.6 46-14.4 66.8-26.4l58.8 42.4c10 7.2 23.8 6 32.6-2.8l65.2-65.2c8.8-8.8 10-22.6 2.8-32.6l-42.4-58.8c12-20.8 20.8-43.2 26.4-66.8l72.4-12.1c10.4-3.6 37.6-14 37.6-26.1v-92c0-12.1-27.2-22.5-37.6-26.1l0.4-0.5z" fill="currentColor"/></svg>
